Land_normalized_Motion_pl07
version=1
nRows=20
nColumns=43
inDegrees=yes
endheader
time		pelvis_tilt		pelvis_list		pelvis_rotation		pelvis_tx		pelvis_ty		pelvis_tz		hip_flexion_r		hip_adduction_r		hip_rotation_r		knee_angle_r		ankle_angle_r		subtalar_angle_r		mtp_angle_r		hip_flexion_l		hip_adduction_l		hip_rotation_l		knee_angle_l		ankle_angle_l		subtalar_angle_l		mtp_angle_l		lumbar_extension		lumbar_bending		lumbar_rotation		neck_flexion		neck_lateral_bending		neck_rotation		arm_flex_r		arm_add_r		arm_rot_r		elbow_flex_r		pro_sup_r		wrist_flex_r		wrist_dev_r		hand_finger_flex_r		arm_flex_l		arm_add_l		arm_rot_l		elbow_flex_l		pro_sup_l		wrist_flex_l		wrist_dev_l		hand_finger_flex_l		
2.955000		1.119591		1.474285		95.721256		-0.019537		0.940690		0.577352		31.438475		-6.959535		-13.103060		-34.717090		-22.744240		-2.741054		24.209657		32.547743		-6.085796		-7.738889		-35.043142		-18.165197		2.678041		22.924969		-27.938239		2.177930		-1.438376		-25.537349		1.510622		-2.042749		-51.901789		-17.122474		-24.952182		45.244818		123.125159		-5.978924		-9.482389		-32.466439		-70.998875		-16.565381		-31.041394		56.376450		129.171139		-14.921042		-2.617839		-26.222503		
2.957626		1.051404		1.789317		95.667625		-0.019479		0.931178		0.573376		31.634243		-7.079989		-13.126136		-35.750606		-22.782915		-2.685853		24.240803		32.834944		-6.137928		-7.717670		-36.403244		-18.226692		2.803707		23.077347		-28.316873		2.109985		-1.397980		-25.659571		1.535135		-2.033550		-51.251024		-17.162461		-24.834905		45.072404		123.163372		-6.044184		-9.520513		-32.506042		-70.126185		-16.606775		-30.771396		56.407706		129.185613		-15.019211		-2.707499		-26.244616		
2.960253		1.104112		1.687999		95.663091		-0.019225		0.920639		0.569747		32.389434		-7.126801		-13.050380		-36.907343		-22.739879		-2.301463		24.331337		33.698136		-6.309267		-7.705569		-37.863560		-18.158524		3.316065		23.987509		-28.322186		2.113226		-1.378419		-25.106389		1.613374		-2.028164		-50.477550		-17.275220		-24.400999		44.556455		123.324351		-6.667833		-10.050104		-32.839259		-69.209341		-16.792975		-30.130166		56.088529		129.280883		-16.004742		-3.198490		-26.442831		
2.962879		1.028145		1.990335		95.591990		-0.019277		0.910940		0.565809		32.606414		-7.264393		-13.098473		-37.877043		-22.899685		-2.276423		24.352849		33.989897		-6.349279		-7.701935		-39.131670		-18.358442		3.363488		24.110794		-28.715471		2.040731		-1.346150		-24.978992		1.621535		-2.002208		-49.751796		-17.390250		-24.249419		44.399935		123.341137		-6.648278		-10.013594		-32.837866		-68.321591		-16.864703		-29.793410		56.199702		129.363944		-15.997166		-3.294157		-26.413160		
2.965505		1.001002		2.142391		95.567010		-0.019164		0.900808		0.562283		33.074373		-7.368432		-13.048874		-38.899959		-23.204766		-2.124538		24.410765		34.509462		-6.430132		-7.690512		-40.363607		-18.720360		3.493566		24.399388		-29.055684		1.991233		-1.326459		-24.184544		1.676563		-1.975625		-48.937695		-17.548511		-23.887066		44.182639		123.400738		-6.748827		-10.088412		-32.902422		-67.383946		-17.055351		-29.315948		56.218123		129.624940		-16.213207		-3.521740		-26.445212		
2.968131		0.953601		2.301200		95.491886		-0.019168		0.890658		0.558401		33.519968		-7.462172		-12.915589		-39.935533		-23.265023		-1.990254		24.586405		34.982439		-6.486198		-7.656358		-41.579459		-18.897731		3.639710		24.756729		-29.286935		1.927444		-1.272754		-24.056879		1.726361		-1.973867		-48.236326		-17.680243		-23.634468		44.055070		123.405860		-6.993607		-10.217585		-33.012929		-66.451266		-17.125995		-28.995983		56.256419		129.964834		-16.533652		-3.749465		-26.528544		
2.970758		0.938393		2.104907		95.373235		-0.018929		0.879720		0.554925		34.484590		-7.495685		-12.561894		-41.141560		-23.042812		-1.654759		25.096039		35.913935		-6.586628		-7.630500		-42.856224		-18.962381		3.982059		25.722092		-29.223263		1.821324		-1.182887		-23.341600		1.798574		-1.977008		-47.452587		-17.885683		-23.045739		43.745786		123.388169		-7.631393		-10.578601		-33.287566		-65.455057		-17.302989		-28.487622		56.055980		130.815001		-17.369768		-4.232479		-26.722925		
2.973384		0.870539		2.077893		95.239166		-0.018799		0.869109		0.551299		35.213199		-7.563592		-12.291158		-42.380278		-22.268845		-1.500246		26.331923		36.610295		-6.626650		-7.564930		-44.138659		-18.608604		4.258278		27.549260		-29.317218		1.692794		-1.094219		-22.843740		1.840389		-1.905788		-46.684810		-18.141983		-22.476995		43.593710		123.126315		-7.914624		-10.724003		-33.223217		-64.469231		-17.459261		-28.134656		56.120877		131.481654		-17.626026		-4.377349		-26.405931		
2.976010		0.800158		1.920884		95.076897		-0.018570		0.858135		0.547701		36.139044		-7.604531		-11.920713		-43.849059		-20.757803		-1.295601		28.362915		37.482615		-6.679387		-7.501953		-45.591658		-17.669247		4.675770		30.539109		-29.253246		1.519929		-0.990105		-22.407557		1.922511		-1.861188		-45.925691		-18.385364		-21.831201		43.427476		122.674148		-8.491055		-10.948264		-33.147976		-63.477324		-17.554222		-27.882179		56.158314		132.425536		-18.188815		-4.558289		-25.957761		
2.978636		0.786798		2.103125		95.025191		-0.018371		0.847669		0.544091		36.620118		-7.593201		-11.696384		-45.472412		-18.155495		-1.005915		28.799864		38.039557		-6.788807		-7.337947		-47.288733		-15.615175		5.596888		31.129568		-29.587721		1.479908		-0.914105		-21.825411		1.969233		-1.921249		-45.121566		-18.466527		-21.666826		43.406206		122.769227		-8.757235		-11.014803		-33.224295		-62.538609		-17.759577		-27.492108		56.341254		132.678340		-18.535568		-4.889244		-26.079902		
2.981263		0.770677		2.162557		94.898980		-0.018056		0.836940		0.540483		37.282369		-7.576757		-11.467796		-47.400072		-14.699906		-0.425749		29.274385		38.744028		-6.933002		-7.143133		-49.228789		-12.782976		6.875272		31.878118		-29.772212		1.395896		-0.768181		-21.352323		2.031737		-1.966738		-44.396840		-18.605394		-21.349227		43.467656		122.847559		-9.137422		-11.204344		-33.332983		-61.516827		-17.961862		-27.141550		56.406563		133.021699		-19.018166		-5.237096		-26.195743		
2.983889		0.753592		2.203661		94.765451		-0.017770		0.826203		0.536991		37.977390		-7.540667		-11.261424		-49.549002		-10.720709		-0.181659		29.500263		39.469465		-7.053822		-6.902313		-51.342856		-9.408964		7.830425		32.467282		-29.968002		1.312068		-0.627252		-20.740803		2.084425		-1.979440		-43.602672		-18.785025		-20.990961		43.497394		122.843480		-9.442334		-11.349853		-33.419098		-60.447724		-18.164393		-26.790184		56.488969		133.353923		-19.397187		-5.549550		-26.214167		
2.986515		0.782632		2.191006		94.660771		-0.017473		0.815393		0.533470		38.745819		-7.502204		-11.129995		-51.932026		-6.349746		0.335789		29.317196		40.241974		-7.283518		-6.786573		-53.598361		-5.545077		9.015116		32.891513		-30.094873		1.284261		-0.511741		-20.136229		2.124168		-1.998644		-42.717537		-18.976757		-20.589671		43.425760		122.712247		-9.804886		-11.445207		-33.526323		-59.325116		-18.382656		-26.406678		56.475314		133.741348		-19.840768		-5.889259		-26.137944		
2.989141		0.822948		2.095486		94.540760		-0.017250		0.804400		0.530073		39.669147		-7.460770		-10.983437		-54.547793		-1.695971		1.177863		24.930043		41.127063		-7.494322		-6.620853		-55.995910		-1.496452		9.857223		31.691744		-30.143559		1.265049		-0.437284		-19.473700		2.139052		-1.976875		-41.827718		-19.375875		-19.666086		43.354626		121.710211		-10.481427		-11.644759		-33.529838		-58.132598		-18.561638		-25.952274		56.308055		134.322464		-20.942733		-6.219931		-24.913968		
2.991768		0.839295		2.181046		94.385246		-0.016910		0.793800		0.526622		40.413687		-7.428820		-10.936817		-57.205362		2.554208		1.431864		22.357568		41.730507		-7.741369		-6.522947		-58.334158		2.575844		10.602116		30.886071		-30.396532		1.198225		-0.234760		-18.837503		2.214103		-2.008389		-40.909526		-19.568856		-19.258735		43.322200		121.396964		-10.842025		-11.719104		-33.531943		-56.895759		-18.770352		-25.623993		56.304857		134.642446		-21.601070		-6.516983		-24.333498		
2.994394		0.831027		2.384689		94.287392		-0.016654		0.783504		0.523315		41.054378		-7.421310		-10.911003		-59.784974		6.014878		0.834371		22.156296		42.205051		-7.903701		-6.430542		-60.607791		6.214391		10.469304		30.871483		-30.830464		1.148799		-0.096754		-18.024109		2.271207		-2.024283		-39.907972		-19.740101		-19.052270		43.338458		121.521750		-10.876993		-11.746698		-33.553152		-55.591272		-18.996166		-25.335794		56.352860		134.792068		-21.711439		-6.706688		-24.356865		
2.997020		0.780942		2.147072		94.060747		-0.016459		0.772266		0.520019		42.369448		-7.447625		-10.685443		-62.607768		9.610211		1.268364		16.231952		43.161957		-8.065874		-6.497467		-62.946558		10.049090		10.624700		25.523768		-30.698177		0.992572		0.083328		-17.548113		2.268318		-2.054788		-39.038526		-20.114974		-18.240756		43.326145		120.661013		-11.403539		-11.984515		-33.905660		-54.265283		-19.151256		-24.942158		56.104369		135.276299		-22.862265		-7.118435		-23.719796		
2.999646		0.776601		2.336532		93.976698		-0.016241		0.762076		0.516862		43.140315		-7.465010		-10.662675		-65.085348		12.196360		0.837463		14.922360		43.682681		-8.209207		-6.489496		-65.106399		13.163217		10.258736		24.347048		-31.125002		0.940336		0.169525		-16.787832		2.364171		-2.073640		-37.914341		-20.323603		-17.949542		43.310896		120.536390		-11.476504		-12.016595		-33.957409		-52.857173		-19.333506		-24.685126		56.060396		135.440556		-23.072053		-7.256018		-23.559142		
3.002273		0.803568		2.573097		93.896949		-0.016246		0.752022		0.513845		43.947803		-7.464022		-10.612340		-67.519686		14.346432		0.230140		15.008201		44.136658		-8.333708		-6.507592		-67.048963		15.985726		9.730448		24.359262		-31.619062		0.958747		0.297592		-15.986596		2.459604		-2.111622		-36.828783		-20.560946		-17.752786		43.390303		120.638823		-11.518917		-12.084919		-33.966678		-51.411504		-19.444811		-24.456360		56.105237		135.586881		-23.214824		-7.419382		-23.638331		
3.004899		0.774710		2.749671		93.802119		-0.016034		0.742040		0.510999		44.842561		-7.483928		-10.546318		-69.757214		16.073500		-0.388088		15.062862		44.758079		-8.418235		-6.567083		-69.054286		18.429265		9.092886		24.294818		-32.071984		0.885539		0.392069		-15.210677		2.527913		-2.147852		-35.644889		-20.769258		-17.516762		43.420854		120.703268		-11.584483		-12.148373		-33.984663		-49.870051		-19.585068		-24.249161		56.014687		135.751029		-23.420449		-7.569911		-23.735763		
